<svg id="Camada_1" data-name="Camada 1" xmlns="http://www.w3.org/2000/svg" viewBox="0 0 1060.47 329.99"><defs><style>.cls-1{fill:#063;}.cls-2{fill:#f38725;}.cls-3{fill:#f19106;}</style></defs><path class="cls-1" d="M936.42,277.68A6.47,6.47,0,0,1,932,266.46a96.35,96.35,0,0,0,1.06-140.7,6.47,6.47,0,1,1,8.91-9.37A109.28,109.28,0,0,1,940.81,276,6.46,6.46,0,0,1,936.42,277.68Z"/><path class="cls-1" d="M912.3,257.33a6.46,6.46,0,0,1-4.39-11.21,72.19,72.19,0,0,0,23.16-52.89,71.34,71.34,0,0,0-22.37-52.15,6.47,6.47,0,0,1,8.91-9.37A84.15,84.15,0,0,1,944,193.23a85.23,85.23,0,0,1-27.31,62.39A6.5,6.5,0,0,1,912.3,257.33Z"/><path class="cls-1" d="M887.9,239.06a6.46,6.46,0,0,1-4.38-11.21,47.11,47.11,0,0,0,15.1-34.49,46.55,46.55,0,0,0-14.59-34,6.46,6.46,0,1,1,8.91-9.36,59.33,59.33,0,0,1,18.61,43.38,60.07,60.07,0,0,1-19.26,44A6.43,6.43,0,0,1,887.9,239.06Z"/><path class="cls-1" d="M859.37,227.19a4.77,4.77,0,0,1-3.24-8.28,34.83,34.83,0,0,0,11.15-25.48,34.36,34.36,0,0,0-10.78-25.12,4.78,4.78,0,0,1,6.59-6.92,43.83,43.83,0,0,1,13.74,32,44.36,44.36,0,0,1-14.23,32.49A4.73,4.73,0,0,1,859.37,227.19Z"/><path class="cls-2" d="M748,134.73a11.21,11.21,0,0,1-5.35-1.35l-37.59-20.23A11.31,11.31,0,1,1,715.8,93.23l37.59,20.23A11.31,11.31,0,0,1,748,134.73Z"/><path class="cls-2" d="M748.14,134.5a11.23,11.23,0,0,1-5.23-1.29l-37.83-19.76a11.31,11.31,0,1,1,10.48-20l37.83,19.76a11.31,11.31,0,0,1-5.25,21.34Z"/><path class="cls-2" d="M747.84,135.06a11.32,11.32,0,0,1-5.53-1.45l-37.22-20.88A11.31,11.31,0,1,1,716.16,93l37.22,20.88a11.31,11.31,0,0,1-5.54,21.18Z"/><path class="cls-2" d="M778.51,97.44a11.31,11.31,0,0,1-8.67-4L742.37,60.73a11.31,11.31,0,1,1,17.32-14.56l27.47,32.67a11.32,11.32,0,0,1-8.65,18.6Z"/><path class="cls-2" d="M817.3,74.23a11.31,11.31,0,0,1-10.57-7.3L791.55,27a11.31,11.31,0,1,1,21.15-8l15.17,39.89A11.31,11.31,0,0,1,817.3,74.23Z"/><path class="cls-2" d="M861.27,65.28A11.31,11.31,0,0,1,850,54.36L848.5,11.7a11.31,11.31,0,0,1,22.61-.78l1.47,42.66a11.31,11.31,0,0,1-10.91,11.7Z"/><path class="cls-2" d="M912.3,72.78a11.31,11.31,0,0,1-10.66-15.09L915.9,17.46A11.32,11.32,0,0,1,937.23,25L923,65.25A11.3,11.3,0,0,1,912.3,72.78Z"/><path class="cls-2" d="M957.26,98.08a11.31,11.31,0,0,1-8.56-18.71l27.89-32.31a11.32,11.32,0,1,1,17.13,14.79l-27.9,32.31A11.27,11.27,0,0,1,957.26,98.08Z"/><path class="cls-2" d="M987.57,133.48a11.31,11.31,0,0,1-5.7-21.09l36.89-21.47a11.31,11.31,0,1,1,11.38,19.55l-36.89,21.47A11.29,11.29,0,0,1,987.57,133.48Z"/><path class="cls-2" d="M1006.82,186.35a11.31,11.31,0,0,1-1.46-22.53l42.31-5.58a11.31,11.31,0,1,1,3,22.43l-42.31,5.58A10.9,10.9,0,0,1,1006.82,186.35Z"/><path class="cls-2" d="M1046.81,247.28a11.47,11.47,0,0,1-2.57-.3l-41.57-9.66a11.31,11.31,0,0,1,5.12-22l41.58,9.66a11.32,11.32,0,0,1-2.56,22.34Z"/><path class="cls-2" d="M1017.68,314.73a11.25,11.25,0,0,1-6.62-2.15l-34.59-25a11.31,11.31,0,0,1,13.26-18.33l34.59,25a11.31,11.31,0,0,1-6.64,20.48Z"/><path class="cls-1" d="M915.7,97.87a109.38,109.38,0,0,0-158.42,97.75V286.4A18.58,18.58,0,0,0,775.85,305h90.78a108.33,108.33,0,0,0,46.13-10.18,6.46,6.46,0,1,0-5.46-11.72,95.47,95.47,0,0,1-40.67,9h-49.8c-2.55-4.63-5.18-9.26-5.77-14.62-.65-6-2.9-11.4-5.74-16.58-1-1.89-2.75-3.39-4-5.18a2.62,2.62,0,0,1-.12-2.19,43.62,43.62,0,0,1,3.06-5.36c2-2.94,4.24-5.7,6.06-8.72,1-1.72,2-2.19,3.95-1.75,5.94,1.34,11.92,1.9,17.9.14,6.25-1.82,7.84-6.61,4-11.86a3.86,3.86,0,0,1-.77-3c1.91-4.59.59-6.78-4.06-9.59-4-2.42-7.09-5.48-6.64-10.73A3.48,3.48,0,0,1,828,199.2c4.08-.42,5.75-3.07,4.46-6.83a3.44,3.44,0,0,1,.4-2.24c.64-1.37,1-2.54-.22-3.87-1.48-1.57-1.24-3.51.32-5.09a23.36,23.36,0,0,0,2.85-3.13c2.76-4,1.4-7.57-3.15-9.42a111,111,0,0,1-10.06-5,3.69,3.69,0,0,1-2-3.49,5.44,5.44,0,0,0-1.13-2.87c-3.07-4.25-6.39-8.32-9.33-12.65s-6.06-8.52-11.28-10.23a51.87,51.87,0,0,0-5.43-1.47A96.44,96.44,0,0,1,909.9,109.42a6.46,6.46,0,1,0,5.8-11.55Z"/><path class="cls-3" d="M101.14,144.21c1,3.43.2,7.07-.61,10.29-3.63,15.14-5.44,30.68-8.07,45.81-1.61,8.27-3.23,16.34-5,24.42C85.4,235,82.77,245.31,81,255.6a188.82,188.82,0,0,1-5.45,21.59c-.2.61-.2,1-.4,1.62C71.47,284.66,69.66,291.52,67,298c-1.62,3.84-4.24,5.45-8.28,5.25a42.21,42.21,0,0,0-8.67.2,8.4,8.4,0,0,1-7.27-2.82l-.2-.2c-5.25-4-8.28-9.49-9.89-16.15-1-4.44-3-8.47-4.24-12.71-2.62-8.07-5-15.94-7.26-24-2.22-7.47-3.84-15.14-6.26-22.6a143.7,143.7,0,0,1-4.84-20.38A124.51,124.51,0,0,0,6.5,189.62a116.17,116.17,0,0,1-2.82-14.13C2.46,168.83,1.45,162,.24,155.31-1.17,146.63,3.68,140.18,12,140c4.44-.21,8.67-.21,12.91-.41,6.86,0,7.87,5.45,8.68,10.7,1.21,8.07,4.24,15.94,5.85,24,3.43,16.14,6,32.29,9.28,48.43.21,1.41,1.22,3.23,2.42,2.62,1.21-4.24,2.22-8.27,3-12.51,2.83-14.33,4.24-28.85,7.67-43,1.61-6.46,2-13.52,4.44-19.57,1.61-4,4.23-7.67,8.07-9.49,4-2,8.88-1.61,13.52-1.21C92.86,140,99.12,138,101.14,144.21Z"/><path class="cls-3" d="M154.6,149.66v.4a13.68,13.68,0,0,1,0,4c0,8.88-.2,17.76-.4,26.64,0,11.1-.2,22.19-.4,33.09,0,7.26-.21,14.53-.41,21.79a9.5,9.5,0,0,1-.4,3.43c-1,4.44-.81,8.88-.81,13.32a122.62,122.62,0,0,1-1,14.93,68.74,68.74,0,0,0-.4,11.1c-.2,3.84-.2,7.67-.2,11.3a12.52,12.52,0,0,1-5,10.29,9.07,9.07,0,0,1-1.81,1.21c-5.25,1.42-10.5,3.64-16.35,1.62-1.61-.81-3.63-.81-5.25-1.62-5.65-2.42-8.47-6.45-9.08-12.71-1-15.54-.4-31.07-.8-51.66.4-8.27,1-21.59,1.81-34.9.41-6.46,1.41-12.72,1.82-19,.4-5.25.6-10.5.81-15.74h-3.84c-5.85,0-6.46-3.64-6.86-10.5a36.8,36.8,0,0,1,2.42-17.55,4.57,4.57,0,0,1,1.82-2.42,2.86,2.86,0,0,1,2.22-.61h36.72a4.19,4.19,0,0,1,2.63.61,4.41,4.41,0,0,1,1.41,1.81,7,7,0,0,1,1.21,3.64C154.6,144.62,154.6,147,154.6,149.66Z"/><path class="cls-3" d="M260.13,144.21c1,3.43.2,7.07-.61,10.29-3.63,15.14-5.44,30.68-8.07,45.81-1.61,8.27-3.23,16.34-5,24.42-2,10.29-4.64,20.58-6.46,30.87a186.76,186.76,0,0,1-5.45,21.59c-.2.61-.2,1-.4,1.62-3.63,5.85-5.45,12.71-8.07,19.16-1.62,3.84-4.24,5.45-8.27,5.25a42.3,42.3,0,0,0-8.68.2,8.4,8.4,0,0,1-7.27-2.82l-.2-.2c-5.25-4-8.27-9.49-9.89-16.15-1-4.44-3-8.47-4.23-12.71-2.63-8.07-5.05-15.94-7.27-24-2.22-7.47-3.83-15.14-6.25-22.6a142.38,142.38,0,0,1-4.85-20.38,122.63,122.63,0,0,0-3.63-14.93c-1.41-4.65-2-9.49-2.82-14.13-1.21-6.66-2.22-13.52-3.43-20.18-1.42-8.68,3.43-15.13,11.7-15.33,4.44-.21,8.68-.21,12.91-.41,6.87,0,7.87,5.45,8.68,10.7,1.21,8.07,4.24,15.94,5.85,24,3.43,16.14,6.06,32.29,9.29,48.43.2,1.41,1.21,3.23,2.42,2.62,1.21-4.24,2.21-8.27,3-12.51,2.83-14.33,4.24-28.85,7.67-43,1.61-6.46,2-13.52,4.44-19.57,1.62-4,4.24-7.67,8.07-9.49,4-2,8.88-1.61,13.52-1.21C251.86,140,258.11,138,260.13,144.21Z"/><path class="cls-3" d="M343.86,315.33c.4,3.63.81,7.67-1.61,10.49a10.67,10.67,0,0,1-6.66,3.43c-4.64,1-8.88.81-13.52.41a21,21,0,0,1-5.05-1,12.61,12.61,0,0,1-6.25-6.26,46.07,46.07,0,0,1-2.42-8.67c-.81-4.24-1.62-8.48-2.22-12.72a7.17,7.17,0,0,1-.4-2c-.81-3.83-.81-8.47-3.23-11.7-2.43-3.43-5.05-2.83-8.68-2.42-4,.2-8.68-.61-12.71-.81-1-.2-2.22-.2-2.83.61-.6.4-.6,1.21-.8,1.81a28.85,28.85,0,0,1-2.83,8.28,11.54,11.54,0,0,1-5.45,4.84c-3.63,1.41-7.46,0-11.3-.2-3.63-.2-7.26.6-10.9.4a7.05,7.05,0,0,1-4-1c-1.61-1-2.22-3.23-2.42-5-.4-5.25,1.82-10.49,3.43-15.34,4.64-14.12,5.65-29.06,9.48-43.38,2.42-10.09,3.84-20.38,6.06-30.47,1.81-8.88,3.63-17.56,6.25-26,1.41-4.24,1.82-8.88,2.63-13.52a46.69,46.69,0,0,1,3.83-12.51c.6-1.42,1.41-2.83,2-4.44,1-3.84,3.43-6.46,6.25-8.88,2-1.82,4.44-3,7.07-2.42,4.23.6,8.27-.21,12.5-.21a27.85,27.85,0,0,1,12.72,2.83,9.24,9.24,0,0,1,5.24,6,18.13,18.13,0,0,1,1.42,5.65c1,5.45,1.81,10.9,2.62,16.55,3.43,23.61,7.26,47,11.1,70.63,1,6.86,2.22,13.92,3.23,20.78,1,5.85,3.23,11.5,3.23,17.56C340.84,289.5,342.45,302.41,343.86,315.33ZM296,229.57c-.6-4.24-1.61-8.68-2.62-12.92h-.61c-1.61,0-8.27,29.47-9.28,32.49-1.21,4.64,11.3,2.63,13.52,2.22a14,14,0,0,0,1.61-.6C302.09,247.93,296.65,233.4,296,229.57Z"/><path class="cls-3" d="M480.35,144.74c1,3.48.21,7.17-.61,10.44-3.69,15.36-5.53,31.12-8.19,46.47-1.64,8.4-3.27,16.59-5.12,24.77-2,10.44-4.71,20.89-6.55,31.33a188.05,188.05,0,0,1-5.53,21.9c-.2.61-.2,1-.4,1.64-3.69,5.94-5.53,12.9-8.19,19.45-1.64,3.89-4.3,5.52-8.4,5.32a42.09,42.09,0,0,0-8.8.2,8.53,8.53,0,0,1-7.37-2.86l-.2-.21c-5.33-4.09-8.4-9.62-10-16.38-1-4.5-3.07-8.59-4.3-12.89-2.66-8.19-5.11-16.17-7.36-24.36-2.26-7.58-3.89-15.36-6.35-22.93A143.84,143.84,0,0,1,388,206a127.22,127.22,0,0,0-3.69-15.15c-1.43-4.7-2-9.62-2.87-14.33-1.22-6.75-2.25-13.71-3.47-20.47-1.44-8.8,3.47-15.35,11.87-15.56,4.5-.2,8.8-.2,13.1-.41,7,0,8,5.53,8.8,10.85,1.23,8.19,4.3,16.18,5.94,24.37,3.48,16.37,6.14,32.75,9.42,49.13.2,1.43,1.23,3.27,2.45,2.66,1.23-4.3,2.26-8.39,3.08-12.69,2.86-14.54,4.29-29.28,7.77-43.61,1.64-6.55,2.05-13.72,4.51-19.86,1.64-4.09,4.3-7.78,8.19-9.62,4.09-2,9-1.64,13.71-1.23C472,140.44,478.31,138.4,480.35,144.74Z"/><path class="cls-3" d="M562.85,280.26c-2.05,8.19-6.76,16.59-15,18.84a25.46,25.46,0,0,1-6.76,1c-7.36.41-14.94.62-22.31,1-7.57.4-14.94.81-22.52-.21a21,21,0,0,1-9.83-3.48c-4.3-3.07-6.14-8.6-7-13.92a94.18,94.18,0,0,1-.62-13.31c0-9.82-.2-19.65-.2-29.48,0-12.69.41-25.58,1.63-38.28,1.23-13.51,1.64-27.22,2.25-40.74a19.58,19.58,0,0,1,1.23-5.93c2.26-5.74,3.69-11.67,9.22-15,5.12-2.86,11.46-3.68,17.4-4.09,7.57-.62,14.94-.62,22.31-.62,6.35,0,12.9.21,18.22,3.28,5.73,3.07,9.42,8.8,11.26,14.94s2,12.7,2.25,19c.41,10,.62,20.06.41,30.1-.2,6.14-.61,12.28-.82,18.63-.2,5.73-.81,11.66.62,17.6a7.46,7.46,0,0,1,.41,2.87C564.69,255.08,566.12,268,562.85,280.26Zm-30.51-47.49c0-5.73-.41-11.46-.61-17.19-.41-8.19-.82-16.59-1.44-24.78-.2-3.48-1.22-6.75-1.63-9.41a7,7,0,0,0-6.76-2.67c-3.89.21-7.37,3.28-7.37,6.56-.2,6.34-.41,12.69-.2,18.83,0,5.12,1,10.24,1,15.35,0,8.4-.41,17-.61,25.39V258c-.21,2.87,1.43,4.51,3.89,5.73a11.21,11.21,0,0,0,2.45.82c2-.61,4.1-1,5.94-1.63,2.87-1,4.91-2.87,4.71-6.15,0-1.64.41-3.48.41-5.12C532.34,245.26,532.34,238.91,532.34,232.77Z"/><path class="cls-3" d="M619.75,263.68a7.5,7.5,0,0,0-.62,2.25c7,.41,24.57.82,31.33-.61,4.91-1,9.62.41,14.12,2.46,3.48,1.64,4.91,5.53,5.12,9.83,0,4.09-.21,8.18,0,12.07a13.74,13.74,0,0,1-3.89,11.06c-3.07,3.27-7.78,4.09-12.08,4.71-10.64,1.22-31.73,1-42.38,1.43a332.73,332.73,0,0,1-35-1.23c-4.92-.61-10.44-1.64-12.7-5.94-1.84-3.89-.2-8.6,1.64-12.48,2.66-5.94,5.73-11.47,9-17.2,3.48-6.55,7-13.1,10.44-19.45q10.14-18.74,19.65-37.46c2.66-5.53,5.53-11.06,8-16.58,1.64-3.28,6.75-11.26,5.32-14.95-.62-1.43-2.25-1.64-3.68-1.43a200.94,200.94,0,0,1-22.32-1c-2.46-.2-5.12-.41-7.37-1.63-5.12-2.87-4.5-10.24-4.09-15.15a96.63,96.63,0,0,1,2.25-13.11c.61-1.84,1.23-3.88,2.66-5.11,1.43-1.44,3.69-1.85,5.73-2.25,10-1.64,19.86-1,29.89-1.64a135.5,135.5,0,0,1,25.79.2c6.15.62,12.08.62,18.23,1a5.81,5.81,0,0,1,1.84.2c4.5,1,5.93,4.91,3.89,10-1.23,2.87-2,5.73-3.28,8.39-2.66,5.74-5.53,11.27-8,17-3.89,8.8-7.58,17.6-11.46,26.2-1.24,2.87-2.67,5.53-4.1,8.19-2.25,4.71-4.71,9.21-6.55,14.13-2.46,7-5.94,12.89-9,19.24C625.07,251,622.41,257.54,619.75,263.68Z"/></svg>