<svg id="Camada_1" data-name="Camada 1" xmlns="http://www.w3.org/2000/svg" viewBox="0 0 777.05 645.92"><defs><style>.cls-1{fill:#063;}.cls-2{fill:#f38725;}.cls-3{fill:#f19106;}</style></defs><path class="cls-1" d="M457.92,327a7.61,7.61,0,0,1-5.17-13.2A113.46,113.46,0,0,0,454,148.09a7.61,7.61,0,1,1,10.5-11A128.66,128.66,0,0,1,463.08,325,7.53,7.53,0,0,1,457.92,327Z"/><path class="cls-1" d="M429.52,303a7.61,7.61,0,0,1-5.17-13.21,85,85,0,0,0,27.27-62.28,84.06,84.06,0,0,0-26.34-61.42,7.61,7.61,0,0,1,10.49-11,99.11,99.11,0,0,1,31.07,72.45A100.3,100.3,0,0,1,434.68,301,7.59,7.59,0,0,1,429.52,303Z"/><path class="cls-1" d="M400.79,281.53a7.61,7.61,0,0,1-5.17-13.21A55.45,55.45,0,0,0,413.4,227.7a54.77,54.77,0,0,0-17.18-40,7.61,7.61,0,0,1,10.5-11,69.86,69.86,0,0,1,21.91,51.08A70.76,70.76,0,0,1,406,279.51,7.59,7.59,0,0,1,400.79,281.53Z"/><path class="cls-1" d="M367.18,267.54a5.62,5.62,0,0,1-3.82-9.75,41,41,0,0,0,13.14-30,40.48,40.48,0,0,0-12.69-29.58,5.62,5.62,0,0,1,7.75-8.15,51.6,51.6,0,0,1,16.18,37.73A52.24,52.24,0,0,1,371,266.05,5.64,5.64,0,0,1,367.18,267.54Z"/><path class="cls-2" d="M236.05,158.66a13.27,13.27,0,0,1-6.3-1.59l-44.26-23.82a13.32,13.32,0,1,1,12.63-23.46l44.26,23.82a13.32,13.32,0,0,1-6.33,25Z"/><path class="cls-2" d="M236.2,158.39a13.25,13.25,0,0,1-6.16-1.51L185.49,133.6A13.32,13.32,0,1,1,197.83,110l44.55,23.28a13.32,13.32,0,0,1-6.18,25.13Z"/><path class="cls-2" d="M235.84,159.05a13.22,13.22,0,0,1-6.5-1.71L185.5,132.75a13.32,13.32,0,0,1,13-23.23l43.84,24.58a13.33,13.33,0,0,1-6.53,25Z"/><path class="cls-2" d="M272,114.74A13.29,13.29,0,0,1,261.75,110L229.41,71.52A13.32,13.32,0,0,1,249.8,54.37l32.35,38.47A13.32,13.32,0,0,1,272,114.74Z"/><path class="cls-2" d="M317.65,87.41a13.32,13.32,0,0,1-12.46-8.59l-17.87-47a13.32,13.32,0,1,1,24.9-9.47l17.87,47a13.32,13.32,0,0,1-12.44,18.06Z"/><path class="cls-2" d="M369.42,76.88A13.33,13.33,0,0,1,356.11,64l-1.73-50.24A13.32,13.32,0,0,1,381,12.86l1.73,50.24a13.31,13.31,0,0,1-12.85,13.77Z"/><path class="cls-2" d="M429.51,85.71A13.33,13.33,0,0,1,417,67.93l16.79-47.37a13.33,13.33,0,1,1,25.12,8.9l-16.8,47.38A13.33,13.33,0,0,1,429.51,85.71Z"/><path class="cls-2" d="M482.46,115.5a13.33,13.33,0,0,1-10.08-22l32.84-38a13.32,13.32,0,1,1,20.17,17.41l-32.84,38.05A13.29,13.29,0,0,1,482.46,115.5Z"/><path class="cls-2" d="M518.15,157.19a13.33,13.33,0,0,1-6.71-24.84l43.44-25.28a13.32,13.32,0,1,1,13.41,23l-43.45,25.29A13.3,13.3,0,0,1,518.15,157.19Z"/><path class="cls-2" d="M540.83,219.45a13.32,13.32,0,0,1-1.73-26.53l49.83-6.58a13.32,13.32,0,0,1,3.49,26.42l-49.83,6.57A13.24,13.24,0,0,1,540.83,219.45Z"/><path class="cls-2" d="M587.92,291.2a13.75,13.75,0,0,1-3-.35l-49-11.38a13.32,13.32,0,1,1,6-26l49,11.37a13.33,13.33,0,0,1-3,26.31Z"/><path class="cls-2" d="M553.61,370.63a13.24,13.24,0,0,1-7.8-2.53l-40.72-29.46a13.32,13.32,0,1,1,15.61-21.59l40.73,29.46a13.33,13.33,0,0,1-7.82,24.12Z"/><path class="cls-1" d="M433.52,115.26A128.8,128.8,0,0,0,247,230.36v106.9a21.89,21.89,0,0,0,21.87,21.87h106.9a127.6,127.6,0,0,0,54.33-12,7.61,7.61,0,1,0-6.43-13.8,112.56,112.56,0,0,1-47.9,10.56H317.09c-3-5.44-6.11-10.89-6.79-17.21-.78-7.07-3.42-13.43-6.77-19.52-1.22-2.22-3.24-4-4.69-6.1a3.08,3.08,0,0,1-.13-2.59,51.83,51.83,0,0,1,3.6-6.31c2.32-3.46,5-6.7,7.14-10.26,1.22-2,2.4-2.58,4.65-2.06,7,1.57,14,2.24,21.08.17,7.36-2.16,9.23-7.79,4.75-14-.68-.94-1.28-2.62-.9-3.53,2.25-5.41.69-8-4.78-11.3-4.71-2.85-8.36-6.45-7.83-12.64a4.12,4.12,0,0,1,3.87-4c4.8-.49,6.77-3.62,5.25-8a4,4,0,0,1,.47-2.64c.75-1.62,1.22-3-.25-4.55-1.75-1.86-1.47-4.14.37-6a27.78,27.78,0,0,0,3.36-3.68c3.24-4.77,1.64-8.92-3.72-11.09-4.07-1.67-7.95-3.85-11.84-5.92a4.34,4.34,0,0,1-2.35-4.11,6.54,6.54,0,0,0-1.33-3.39c-3.62-5-7.53-9.79-11-14.89s-7.14-10-13.28-12a63.07,63.07,0,0,0-6.4-1.73,113.54,113.54,0,0,1,137.1-27.62,7.61,7.61,0,0,0,6.84-13.6Z"/><path class="cls-3" d="M117.05,430.93c1.16,4,.23,8.17-.7,11.91-4.21,17.51-6.31,35.49-9.35,53-1.86,9.57-3.73,18.91-5.83,28.26C98.83,536,95.8,547.93,93.7,559.84a217.8,217.8,0,0,1-6.31,25c-.24.7-.24,1.17-.47,1.87-4.2,6.77-6.3,14.71-9.34,22.19-1.87,4.43-4.9,6.3-9.58,6.07a49.14,49.14,0,0,0-10,.23,9.71,9.71,0,0,1-8.41-3.27l-.24-.23c-6.07-4.67-9.57-11-11.44-18.68-1.17-5.14-3.5-9.81-4.9-14.72-3-9.34-5.84-18.44-8.41-27.79C22,541.85,20.13,533,17.33,524.34a163.35,163.35,0,0,1-5.6-23.59,143.68,143.68,0,0,0-4.21-17.28c-1.63-5.37-2.34-11-3.27-16.34-1.4-7.71-2.57-15.65-4-23.36-1.63-10,4-17.51,13.55-17.75,5.14-.23,10-.23,14.94-.46,7.94,0,9.11,6.3,10.05,12.37,1.4,9.34,4.9,18.45,6.76,27.79,4,18.69,7,37.37,10.75,56,.23,1.64,1.4,3.74,2.8,3,1.4-4.91,2.57-9.58,3.51-14.48,3.26-16.58,4.9-33.4,8.87-49.74,1.87-7.48,2.33-15.65,5.14-22.66,1.86-4.67,4.9-8.87,9.34-11,4.67-2.34,10.27-1.87,15.64-1.4C107.47,426,114.71,423.69,117.05,430.93Z"/><path class="cls-3" d="M178.92,437.23v.47a15.89,15.89,0,0,1,0,4.67c0,10.27-.23,20.55-.47,30.83,0,12.84-.23,25.68-.46,38.3,0,8.4-.23,16.81-.47,25.22a10.87,10.87,0,0,1-.47,4c-1.17,5.13-.93,10.27-.93,15.41-.24,5.84-.24,11.44-1.17,17.28-.7,4.21-.47,8.64-.47,12.84-.23,4.44-.23,8.88-.23,13.08a14.48,14.48,0,0,1-5.84,11.91,10.65,10.65,0,0,1-2.1,1.4c-6.07,1.64-12.14,4.21-18.92,1.87-1.86-.93-4.2-.93-6.07-1.87-6.53-2.8-9.8-7.47-10.51-14.71-1.16-18-.46-36-.93-59.78.47-9.58,1.17-25,2.1-40.4.47-7.48,1.64-14.72,2.1-22,.47-6.07.71-12.14.94-18.21h-4.44c-6.77,0-7.47-4.2-7.94-12.14a42.78,42.78,0,0,1,2.8-20.32,5.24,5.24,0,0,1,2.11-2.8,3.33,3.33,0,0,1,2.57-.7h42.5a4.85,4.85,0,0,1,3,.7,5,5,0,0,1,1.64,2.1,8.21,8.21,0,0,1,1.4,4.2C178.92,431.39,178.92,434.2,178.92,437.23Z"/><path class="cls-3" d="M301.05,430.93c1.17,4,.24,8.17-.7,11.91-4.2,17.51-6.3,35.49-9.34,53-1.87,9.57-3.74,18.91-5.84,28.26-2.34,11.91-5.37,23.82-7.47,35.73a217.8,217.8,0,0,1-6.31,25c-.23.7-.23,1.17-.47,1.87-4.2,6.77-6.3,14.71-9.34,22.19-1.86,4.43-4.9,6.3-9.57,6.07a49.22,49.22,0,0,0-10,.23,9.73,9.73,0,0,1-8.41-3.27l-.23-.23c-6.08-4.67-9.58-11-11.45-18.68-1.16-5.14-3.5-9.81-4.9-14.72-3-9.34-5.84-18.44-8.41-27.79-2.57-8.64-4.43-17.51-7.24-26.15a166,166,0,0,1-5.6-23.59,143.68,143.68,0,0,0-4.21-17.28c-1.63-5.37-2.33-11-3.26-16.34-1.41-7.71-2.57-15.65-4-23.36-1.63-10,4-17.51,13.55-17.75,5.14-.23,10-.23,14.94-.46,7.95,0,9.11,6.3,10,12.37,1.4,9.34,4.9,18.45,6.77,27.79,4,18.69,7,37.37,10.74,56,.24,1.64,1.4,3.74,2.81,3,1.4-4.91,2.56-9.58,3.5-14.48,3.27-16.58,4.9-33.4,8.87-49.74,1.87-7.48,2.34-15.65,5.14-22.66,1.87-4.67,4.91-8.87,9.34-11,4.67-2.34,10.28-1.87,15.65-1.4C291.48,426,298.72,423.69,301.05,430.93Z"/><path class="cls-3" d="M398,629c.47,4.2.94,8.87-1.86,12.14-1.87,2.34-4.91,3.51-7.71,4-5.37,1.17-10.27.94-15.65.47a23.55,23.55,0,0,1-5.84-1.17,14.52,14.52,0,0,1-7.23-7.24,52.86,52.86,0,0,1-2.8-10c-.94-4.9-1.88-9.8-2.57-14.71a8,8,0,0,1-.47-2.33c-.94-4.44-.94-9.81-3.74-13.55-2.8-4-5.84-3.27-10-2.8-4.67.23-10-.7-14.71-.94-1.17-.23-2.57-.23-3.27.7-.7.47-.7,1.41-.94,2.11a33.21,33.21,0,0,1-3.26,9.57,13.42,13.42,0,0,1-6.31,5.61c-4.2,1.63-8.64,0-13.08-.24-4.2-.23-8.41.7-12.61.47a8.17,8.17,0,0,1-4.67-1.17c-1.87-1.17-2.57-3.73-2.8-5.84-.47-6.07,2.1-12.14,4-17.75,5.37-16.34,6.54-33.62,11-50.2,2.81-11.68,4.44-23.59,7-35.27,2.1-10.27,4.2-20.31,7.24-30.12,1.63-4.91,2.1-10.28,3-15.65a54.62,54.62,0,0,1,4.43-14.48c.7-1.63,1.64-3.27,2.34-5.14,1.16-4.43,4-7.47,7.24-10.27,2.33-2.1,5.14-3.5,8.17-2.8,4.9.7,9.57-.24,14.48-.24A32.3,32.3,0,0,1,362,425.32a10.7,10.7,0,0,1,6.07,7,20.69,20.69,0,0,1,1.64,6.54c1.17,6.3,2.1,12.61,3,19.15,4,27.32,8.41,54.41,12.85,81.73,1.17,7.94,2.57,16.11,3.73,24.06,1.17,6.77,3.74,13.31,3.74,20.31C394.45,599.07,396.32,614,398,629Zm-55.34-99.25c-.7-4.9-1.87-10-3-15h-.7c-1.87,0-9.57,34.1-10.74,37.6-1.4,5.37,13.08,3,15.65,2.57a14.49,14.49,0,0,0,1.86-.7C349.62,551,343.31,534.15,342.61,529.71Z"/><path class="cls-3" d="M555.92,431.54c1.18,4,.24,8.29-.71,12.08-4.27,17.77-6.4,36-9.48,53.78-1.9,9.72-3.79,19.19-5.92,28.67-2.37,12.08-5.45,24.17-7.58,36.25a219.58,219.58,0,0,1-6.4,25.35c-.24.71-.24,1.18-.48,1.89-4.26,6.88-6.39,14.93-9.47,22.51-1.9,4.5-5,6.4-9.72,6.16a49.9,49.9,0,0,0-10.18.24,9.86,9.86,0,0,1-8.53-3.32l-.24-.24c-6.16-4.73-9.72-11.13-11.61-18.95-1.19-5.21-3.55-10-5-14.92-3.07-9.48-5.92-18.72-8.52-28.2-2.61-8.76-4.51-17.77-7.35-26.53a168.12,168.12,0,0,1-5.69-23.93,143.58,143.58,0,0,0-4.26-17.53c-1.66-5.45-2.37-11.14-3.32-16.59-1.42-7.82-2.6-15.87-4-23.69-1.66-10.19,4-17.77,13.74-18,5.21-.23,10.18-.23,15.16-.47,8.05,0,9.24,6.4,10.19,12.56,1.42,9.47,5,18.71,6.87,28.19,4,19,7.11,37.91,10.9,56.86.23,1.66,1.42,3.79,2.84,3.08,1.42-5,2.61-9.71,3.55-14.69,3.32-16.82,5-33.88,9-50.46,1.89-7.58,2.37-15.88,5.21-23,1.9-4.74,5-9,9.48-11.14,4.74-2.37,10.42-1.89,15.87-1.42C546.2,426.56,553.55,424.19,555.92,431.54Z"/><path class="cls-3" d="M651.38,588.38c-2.37,9.48-7.81,19.19-17.29,21.8-2.61.94-5.22.94-7.82,1.18-8.53.48-17.29.71-25.82,1.19-8.77.47-17.3.94-26.07-.24a24.34,24.34,0,0,1-11.37-4c-5-3.55-7.11-9.95-8-16.11a108.59,108.59,0,0,1-.72-15.4c0-11.37-.23-22.74-.23-34.12,0-14.68.47-29.61,1.89-44.3,1.42-15.64,1.9-31.51,2.61-47.15a22.19,22.19,0,0,1,1.42-6.87c2.61-6.63,4.27-13.5,10.66-17.29,5.93-3.32,13.27-4.27,20.14-4.74,8.77-.71,17.3-.71,25.83-.71,7.34,0,14.92.23,21.08,3.79,6.64,3.55,10.9,10.19,13,17.29s2.37,14.69,2.61,22c.47,11.61.71,23.22.47,34.83-.23,7.1-.71,14.21-1,21.56-.23,6.63-.94,13.5.72,20.37a8.7,8.7,0,0,1,.47,3.32C653.52,559.24,655.17,574.17,651.38,588.38Zm-35.3-55c0-6.64-.47-13.27-.71-19.9-.47-9.48-.94-19.2-1.66-28.67-.23-4-1.42-7.82-1.89-10.9a8.13,8.13,0,0,0-7.82-3.08c-4.5.23-8.53,3.79-8.53,7.58-.24,7.34-.47,14.69-.24,21.8,0,5.92,1.19,11.84,1.19,17.77,0,9.71-.48,19.66-.71,29.38v15.16c-.24,3.31,1.66,5.21,4.5,6.63a13.74,13.74,0,0,0,2.84.95c2.37-.71,4.74-1.19,6.87-1.9,3.32-1.18,5.69-3.32,5.45-7.11,0-1.89.48-4,.48-5.92C616.08,547.87,616.08,540.52,616.08,533.42Z"/><path class="cls-3" d="M717.24,569.19a8.06,8.06,0,0,0-.71,2.61c8.05.47,28.43,1,36.25-.71,5.68-1.19,11.13.47,16.34,2.84,4,1.9,5.69,6.4,5.93,11.37,0,4.74-.24,9.48,0,14a15.94,15.94,0,0,1-4.5,12.79c-3.56,3.79-9,4.74-14,5.45-12.32,1.43-36.73,1.19-49.05,1.66A383.5,383.5,0,0,1,667,617.76c-5.69-.71-12.08-1.9-14.69-6.87-2.13-4.5-.24-9.95,1.9-14.45a223.26,223.26,0,0,1,10.42-19.9c4-7.59,8.06-15.17,12.08-22.51q11.73-21.69,22.75-43.36c3.08-6.4,6.39-12.79,9.24-19.19,1.89-3.79,7.82-13,6.16-17.3-.71-1.65-2.61-1.89-4.27-1.65a232.25,232.25,0,0,1-25.82-1.19c-2.85-.24-5.93-.47-8.53-1.89-5.92-3.32-5.21-11.85-4.74-17.54a113.13,113.13,0,0,1,2.61-15.16c.71-2.13,1.42-4.5,3.08-5.92,1.65-1.66,4.26-2.13,6.63-2.61,11.61-1.89,23-1.18,34.59-1.89a157.52,157.52,0,0,1,29.85.23c7.11.71,14,.71,21.09,1.19a6.47,6.47,0,0,1,2.13.24c5.21,1.18,6.87,5.68,4.5,11.61-1.42,3.31-2.37,6.63-3.79,9.71-3.08,6.63-6.39,13-9.24,19.66-4.5,10.19-8.76,20.38-13.26,30.33-1.43,3.32-3.08,6.4-4.74,9.47-2.61,5.46-5.45,10.67-7.59,16.35-2.84,8.06-6.87,14.93-10.42,22.28C723.4,554.5,720.32,562.08,717.24,569.19Z"/></svg>